<?xml version="1.0" encoding="UTF-8"?>
<svg id="Layer_2" data-name="Layer 2" xmlns="http://www.w3.org/2000/svg" viewBox="0 0 30.53 55.77">
  <defs>
    <style>
      .cls-1 {
        fill: #0a92cf;
      }

      .cls-2 {
        fill: #03a84d;
      }
    </style>
  </defs>
  <g id="Layer_1-2" data-name="Layer 1">
    <g>
      <path class="cls-2" d="M20.57,4.29s-12.73,13.44-4.72,24.6c0,0,7.58,13.38-2.65,26.89h5.65s10.15-12.01.29-29.75c0,0-6.86-7.29,1.43-21.74Z"/>
      <path class="cls-2" d="M5.12,0s2.37,1.84,7.44,2.86c0,0,6.15,1.43,2.86,7.01,0,0-3.65,4.5-7.72,0,0,0-3.43-3.58-2.57-9.87Z"/>
      <path class="cls-1" d="M30.52,11.87s.5,9.58-5.01,11.87-8.94-2-6.86-6.58c0,0,2.07-3.93,6.72-3.72s5.15-1.57,5.15-1.57Z"/>
      <path class="cls-2" d="M15.9,44.58s-4.72,5.68-11.5-1.25c0,0-6.22-7.01-3.88-14.42,0,0,3.67,4.2,9.39,4.06,0,0,5.01.36,6.15,3.29,0,0,3,4.65-.16,8.33Z"/>
    </g>
  </g>
</svg>