<?xml version="1.0" encoding="UTF-8"?>
<svg id="Capa_2" data-name="Capa 2" xmlns="http://www.w3.org/2000/svg" viewBox="0 0 179.03 252.46">
  <defs>
    <style>
      .cls-1 {
        fill: #2e5b2c;
        stroke-width: 0px;
      }
    </style>
  </defs>
  <g id="Layer_1" data-name="Layer 1">
    <g>
      <path class="cls-1" d="M133.97,13.66l-.09.12s0,0,0,0c.03-.04.05-.09.08-.13Z"/>
      <polygon class="cls-1" points="107 167.68 107 167.68 107 167.69 107 167.68"/>
      <path class="cls-1" d="M179.02,216.59s0,0,.01,0c0,0-.02,0-.02,0,0,0,0,0,.01.01Z"/>
      <path class="cls-1" d="M175.9,226.08c-.43-2.88-1.69-5.72-3.06-8.33-.83-1.58-1.75-3.17-3.17-4.26-1.15-.88-2.54-1.37-3.92-1.79-14.52-4.46-31.29,1.32-43.92-8.4-4.55-3.5-6.51-9.63-11.09-12.84-.23-.1-.44-.22-.63-.35-7.59-5.11-9.2-21.99-10.11-29.95-1.41-12.33-1.27-24.79-.15-37.14,2.51-27.78,12.39-54.3,14.8-81.83.17-1.99,3.1-36.26,1.84-36.73C99.64-1.85,79.01.48,61.37.19c-10.79-.17-21.58-.03-32.35.43-5.6.24-11.2.57-16.8.98-1.05.08-11.58.63-11.53.55-1.34,2.14-.31,4.18-.36,6.19C-.16,29.37,2.6,51.26,3.82,72.36c1.29,22.32,3.29,44.64,7.05,66.69,1.73,10.12,3.83,20.19,4.88,30.41.99,9.67-.18,18.91-.27,28.5-.71,3.82-1.43,7.65-1.47,11.56-.12,11.03.27,22.06.53,33.17.03,1.43.08,2.9.65,4.2,1.49,3.37,5.75,4.31,9.4,4.81,2.77.38,6.18.49,7.7-1.86.54-.83.77-1.91,1.59-2.48,1.98-1.36,3.97,1.54,5.65,3.25,2.79,2.83,8.17,2.28,10.34-1.05.43-.67.78-1.45,1.47-1.85,2.81-1.64,4.52,4.61,7.78,4.66,1.81.03,2.99-1.96,3.24-3.75s.03-3.71.82-5.33c1.3-2.64,4.68-3.37,7.61-3.54,10.16-.59,20.47,1.96,29.19,7.21,2.66,1.61,6.25,3.42,8.56,1.33-1.67,1.51,5.72,2.99,7.57,1.71.9,1.2,2.5,2.52,4.12,2.46,1.89-.06,3.59-1.7,3.72-3.58.59,1.8,2.49,3.08,4.38,2.96s3.61-1.64,3.96-3.5c.84,1.63,2.88,2.53,4.65,2.07s3.11-2.25,3.05-4.08c.86,1.59,2.83,2.49,4.59,2.09s3.15-2.06,3.24-3.87c2.21,2.47,7.17.74,7.36-2.57,2.84,2.04,7.55-.03,7.96-3.5,5.2,1.28,11.09-2.17,12.52-7.33.46-1.67.49-3.37.24-5.07Z"/>
    </g>
  </g>
</svg>