<?xml version="1.0" encoding="UTF-8"?>
<svg id="Layer_2" data-name="Layer 2" xmlns="http://www.w3.org/2000/svg" viewBox="0 0 340.16 217">
  <defs>
    <style>
      .cls-1 {
        fill: #555353;
      }

      .cls-2 {
        fill: #010101;
      }
    </style>
  </defs>
  <g id="Layer_1-2" data-name="Layer 1">
    <g>
      <path class="cls-2" d="M339.44,152.68c-.2,1.7-.03,4.22-1.77,4.45-1.74.22-2.27-2.33-2.87-3.87-1.95-4.95-2.37-10.17-2.47-15.42-.14-6.58-.1-13.17-1.93-19.57-1.44-5.02-2.82-10.04-3.47-15.26-1.13-8.99-.87-19.52-.96-28.74-.38,2.55-.8,5.11-1.24,7.72-2.58,21.36-4,52.71-.27,56.23,4.49,4.22,5.21,8.93,3.17,14.44-1.35,3.65-1.7,7.45-1.68,11.33.08,11.28.02,22.56.05,33.85,0,1.34-.04,2.47-1.51,3.14-4.6,2.08-2.83,5.9-2.03,10.33,1.02,5.61.96,5.66-4.72,5.7-5.96.05-12.68,0-18.79,0,1.95-7.06,4.05-14.02,5.8-21.07,2.29-9.2,4.92-18.37,4.65-28.01-.16-5.74-2.33-12.83-5.19-16.75-6.5,11.19-10.59,23.33-14.06,35.71-1.17,4.13-2.34,8.25-3.43,12.4-.36,1.4-1,2-2.53,2.22-5.66.82-6.75,2.43-5.93,8.18.27,1.9.47,3.83.92,5.69.32,1.32-.1,1.57-1.3,1.57-8.7-.03-17.4-.02-26.28-.02.03-1.25.88-1.86,1.46-2.58,5.65-6.98,10.73-14.36,15.74-21.81,6.34-9.43,8.77-19.97,9.75-31.01.42-4.65.69-9.32.97-13.99.04-.68.6-1.82-.82-1.85-1.01-.02-2.11-.41-2.64,1.14-.81,2.32-1.73,4.64-3.25,6.61-.9,1.17-1.95,2.35-3.67,1.72-1.73-.63-1.71-2.19-1.68-3.69.05-1.67.74-3.19,1.09-4.79.15-.69,1.23-1.55.24-2.15-1.01-.61-1.59.5-2.26,1.08-1.23,1.09-2.44,2.22-3.72,3.25-.77.63-1.65,1.14-2.52,1.65-.98.57-2.09.94-3.09.21-1.07-.8-1.13-1.94-.82-3.22.45-1.9,1.26-3.63,2.28-5.25.68-1.07.65-1.58-.54-2.32-3.33-2.03-6.07-4.71-8.06-8.1-.41-.69-.63-1.15-1.62-.65-10.16,5.11-21.15,6.09-32.28,6.25-9.47.15-18.83-.93-28.21-2.06-12.33-1.48-16.97-1.42-29.33-.21-1.9.19-2.32.98-2.16,2.82.63,7.31-5.74,14.51-4.76,21.76.48,3.59.49,7.15-1.7,10.3-.61.87-.41,1.73-.35,2.63.59,9.25-.28,18.34,2.63,27.17.28.85.68,1.6-.63,2.41-1.61,1.01-1.42,3.04-1.25,4.76.27,2.74.8,5.44,1.76,8.02.56,1.48.18,1.92-1.39,1.91-10.15-.04-14.91-.02-25.53-.02.78-1.15,1.33-2.03,1.95-2.87,4.21-5.77,5.1-11.68,8.19-18.14,1.19-2.5,1.82-5.11,1.75-7.95-.12-5.13-.08-10.27,0-15.4.02-1.46-.36-2.58-1.32-3.71-3.31-3.83-5.21-8.34-5.84-13.36-.92-.41-.77.33-.81.79-.1,1.24.15,2.49-.17,3.72-.19,3.11-1.48,5.86-3.15,8.36-1.08,1.63-1.42,3.24-1.46,5.12-.29,9.53-.69,19.05-.96,28.59-.04,1.28-.45,1.98-1.54,2.56-4.27,2.3-5.41,5.94-4.25,10.45.32,1.25.19,1.85-1.32,1.84-9.24-.05-15.39-.02-24.74-.02,0-1.12.83-1.49,1.35-2.03,5.74-5.93,8.22-12.01,13.14-18.66,4.64-6.26,5.62-13.34,5.19-20.83-.05-.88-.46-1.51-1.04-2.15-2.04-2.31-2.92-5.03-2.81-8.09.22-6.14-5.74-12.27-5.51-18.41.05-1.03.25-1.99-1.26-2.22-9.39-1.42-8.82-7.85-13.52-15.28-6.09-9.63-9.91-20.29-13.84-30.91-3.31-8.96-7.97-17.04-15-23.65-1.45-1.36-2.6-2.01-4.73-.94-4.95,2.49-10.22,1.32-15.38.58-5.15-.74-10.29-1.63-15.42-2.53-1.75-.31-3.31-.15-4.99.57-5.03,2.15-9.79.88-13.31-3.31-1.61-1.91-2.81-4.07-3.72-6.37-1.54-3.91-.6-7.73,3.28-9.29,6.85-2.77,10.86-8.49,15.52-13.55,2.78-3.02,4.66-6.47,5.9-10.6,2.2-7.38,6.87-13.48,12.66-18.56,2.75-2.42,5.6-4.73,8.22-7.3,3.91-3.84,6.99-4.58,11.43-1.36,3.5,2.53,6.39,2.51,9.85.54,1.3-.74,2.82-1.07,4.46-1.68-.24,3.2-.58,6.09-1.53,8.86-.44,1.27-.28,2.01.79,2.98,9.09,8.33,19.67,12.44,32.05,11.83,5.95-.29,11.93-.16,17.86-.73,12.76-1.21,25.16.55,37.5,3.69,15.85,4.03,32,4.7,48.28,3.83,22.43-1.19,44.58-4.72,66.79-7.82,8.7-1.21,17.4-2.5,26.18-3.06,4.24-.27,8.43.05,12.44,1.56,7.89,2.96,11.78,9.01,13.55,16.53.18.75.33,1.51.47,2.29.06.39.14.78.19,1.17.06.32.1.65.15.97,0,.05.02.08.02.12,2.31,14.99,5.29,30,4.35,45.06-.57,9.15-.32,18.41,3.58,26.93,5.55,12.1,6.32,24.66,4.74,37.59Z"/>
      <path class="cls-1" d="M128.97,160c-.01-1.62-.06-3.25-.02-4.87,0-.38.11-1.04.73-.83.5.17.35.74.27,1.19-1.29,1.3.07,3.16-.97,4.51Z"/>
    </g>
  </g>
</svg>