<?xml version="1.0" encoding="UTF-8"?>
<svg id="Layer_2" data-name="Layer 2" xmlns="http://www.w3.org/2000/svg" viewBox="0 0 226.77 161.83">
  <g id="Layer_1-2" data-name="Layer 1">
    <path d="M70.62,159.61c-4.28,1.65-8.56,2.25-13.04,1.93-2.6-.19-1.34-4.82-.77-6.31,1.66-4.32,6.32-1.31,7.09-5.22,1.32-6.65-1.49-10.48-.44-20.35.22-2.09.56-4.19.56-6.32,0-7.15-1.55-13.96-3.69-20.6-3.57-1.16-6.17-3.24-8.31-6.08l-5.13-6.8c-2.21-2.94-4.6-5.75-6.97-8.58-.44-3.09-.75-6.48-1.55-9.58s-1.25-6.3-1.73-9.58c-.23-1.55-.59-3.22-1.35-4.54-1.28-2.24-1.3-4.46-1.86-6.91-.79-3.48-2.71-6.7-4.18-9.93-.65-1.43-2.08-2.01-3.58-2.12-4.76-.33-9.41-.89-13.9-2.21-3.06-.9-5.08-2.8-6.7-5.3-.58-.9-1.4-1.8-1.65-2.9-.49-2.15-.77-4.22-1.35-6.26-.5-1.76-2.51-3.27-1.98-5.37.35-1.39,2.61-1.93,4.06-2.07,5.12-.49,9.87-.75,14.97-1.59,1.11-.55,2.2-2.29,2.74-3.41,1.81-3.76,4.9-6.14,9.04-6.61,6.03-.69,9.86-1.65,15.8.9,2.16.93,3.68,2.66,5.14,4.45,3.34,4.11,6.44,8.19,10.36,11.78s7.32,6.89,10.81,10.68c2.26,2.45,4.53,4.74,7.09,6.81,2.89,2.33,6.35,3.34,10.05,3.08,3.21-.22,6.09.33,9.15,1.17,7.01,1.92,20.06.49,27.41-.92l14.72-2.82c15.38-2.95,27.67,2.17,31.38,2.21,5.99.07,11.48-1.6,16.77-4.3,8.91-4.55,16.89-10.09,24.58-16.44,4.01-3.31,6.82-7.22,8.81-12,1.04-2.5,1.81-4.99,3.32-7.51.94,5.41.42,11-.87,15.89l1-1.38c-.16,3.35-1.45,6.12-3.49,8.52l.26.9c-1.66,3.55-4.44,6.15-8.06,7.41l3.31-.15-8.86,5.62c-10.37,6.58-16.32,4.25-22.28,11.09-1.3,1.49,2.05,1.2,4.13,4.96,5.54,9.99,4.63,20.44,1.55,31.14-1.61,5.59-2.01,11.19-.17,16.84.91,2.8,1.54,6.5,3.45,8.73,1.54,1.8,3.64,2.49,3.88,5.53.78,10-1.05,15.26-.45,24.81l.95,14.87c.11,1.66-.49,3.15-2.06,4.02-3.98,2.2-10.04,2.55-14.88,3.01-.91.09-2-.75-2.06-1.68-.12-2.09.2-4.28,1.59-5.94s6.12-1.69,6.43-4.43c.63-5.47-.07-10.85-1.68-16.08l-2.25-7.34c-.37-1.2-1.15-2.4-2.2-3.11-2.34-1.57-4.51-3.18-6.93-4.6-9.15-5.39-14.09-7.18-19.36-17.38-1.96-3.8-3.76-7.51-6.06-11.1-2.56-4.02-6.59-6.06-11.49-5.81-10.03.51-19.81,2.31-29.47,5.08-11.52,3.31-16.39,8.14-27.52,11.32.78,5.75-1.95,14.83-3.67,20.74-3.97,13.66-1.04,20.62-3.97,32.98-.59,2.47-2.02,4.2-4.44,5.13Z"/>
  </g>
</svg>