<?xml version="1.0" encoding="UTF-8"?>
<svg id="Capa_2" data-name="Capa 2" xmlns="http://www.w3.org/2000/svg" viewBox="0 0 246.08 343.89">
  <defs>
    <style>
      .cls-1 {
        fill: #2e5b2c;
        stroke-width: 0px;
      }
    </style>
  </defs>
  <g id="Layer_1" data-name="Layer 1">
    <path class="cls-1" d="M216.33,154.2c-40.86-23.13-45.49-50.88-45.49-50.88,0,0-9.25-11.57-11.56-64.77C157.56-.85,123.04,0,123.04,0c0,0-34.52-.85-36.24,38.55-2.31,53.2-11.56,64.77-11.56,64.77,0,0-4.63,27.75-45.49,50.88C-2.92,172.7.07,205.24.07,205.24v114.34c0,25.83,24.28,24.29,24.28,24.29h197.38s24.28,1.54,24.28-24.29v-114.34s2.99-32.54-29.68-51.04ZM123.04,46.65c-8.2,0-14.84-6.65-14.84-14.84s6.64-14.84,14.84-14.84,14.84,6.64,14.84,14.84-6.64,14.84-14.84,14.84Z"/>
  </g>
</svg>