<?xml version="1.0" encoding="UTF-8"?>
<svg id="Layer_2" data-name="Layer 2" xmlns="http://www.w3.org/2000/svg" viewBox="0 0 205.31 351.91">
  <defs>
    <style>
      .cls-1 {
        fill: #2e5b2c;
      }
    </style>
  </defs>
  <g id="Layer_1-2" data-name="Layer 1">
    <path class="cls-1" d="M81.74,344.31c-4.61,7.21-12.01,9.26-18.92,6.28-6.81-2.94-9.58-9.82-8.14-17.64l23.55-127.97-64.48-.11c-5.5,0-10.37-4.47-12.18-8.24-2.52-5.23-1.95-10.54,1.44-15.42L124.61,6.02c4.1-5.91,11.6-7.26,17.29-4.98,6.18,2.47,10.21,8.86,9,16.06l-19.26,114.79,59.04.07c5.41,0,10.08,3.04,12.43,7.04,2.7,4.58,3.17,10.39-.04,15.41l-121.32,189.88Z"/>
  </g>
</svg>