<?xml version="1.0" encoding="UTF-8"?>
<svg id="Layer_2" data-name="Layer 2" xmlns="http://www.w3.org/2000/svg" viewBox="0 0 396.85 355.43">
  <defs>
    <style>
      .cls-1 {
        fill: #010101;
      }
    </style>
  </defs>
  <g id="Layer_1-2" data-name="Layer 1">
    <g>
      <path class="cls-1" d="M391.61,295.9c-.36.96-.33,2.58-1.75,2.6-1.25.03-1.77-1.34-2.29-2.32-2-3.85-3.22-7.98-4.22-12.17-2.18-9.1-5.46-17.95-6.21-27.38-.23-2.94-.35-5.84.27-8.74,1.66-7.77-.52-13.47-3.08-22.91-.83-.98.28-7.57-.56-8.53-3.55-10.79-1.82-16.96-2.01-23.55-.47-16.42.21-15.18.18-32.39,0-13.29-2.42-20.81-5.62-26.33.33,1.73.59,3.49.81,5.26,1.31,10.79-2.01,21.12-5.32,31.28-1.67,5.17-3.34,10.37-5.42,15.39-4.33,10.47-3.23,20.57,1.44,30.54,2.71,5.78,6.1,11.14,10.15,16.04,3.6,4.34,5.47,9.38,4.74,14.82-1.13,8.58.97,16.64,2.86,24.77,2.73,11.72,6.43,23.18,9.83,34.71.88,2.96,1.34,5.94,1.37,8.99.03,2.93-.29,5.68-3.9,6.45-1.19.25-1.46,1.17-1.63,2.28-.43,3.01-1.01,6.01-1.5,9.01-.59,3.65-1.61,7.02,1.4,10.64,2.44,2.94.57,6.81-.98,10.07-.35.75-1.05.99-1.9.99-6.57-.03-13.14-.02-20.45-.02,2.51-3.68,4.49-6.87,6.78-9.83,1.64-2.1,2.51-4.33,2.69-6.93,1.45-21.01,1.38-41.9-3.49-62.57-2.42-10.31-7.59-19.1-13.54-27.49,2.42,9.81,4.28,20.2,3.77,23.87-2.03,14.45-2.82,29.07-4.12,43.61-.51,5.74-1.94,7.5-7.2,8.69-1.04.24-1.38,1.05-1.85,1.75-1.36,1.99-2.64,4.04-3.97,6.05-1.57,2.36-4.08,4.4.44,6.83,2.41,1.29,1.85,4.43.73,6.93-.98,2.19-2.12,3.67-5.06,3.54-6.47-.29-12.96-.09-19.39-.09-.64-1.34.43-2,.91-2.78,5.51-8.97,10.81-18.07,16.69-26.79,3.18-4.74,4.64-9.68,4.95-15.2.69-12.31,1.61-24.61.91-36.96-.23-3.97-1.16-7.65-2.83-11.32-6.35-13.93-12.46-27.96-18.64-41.97-.26-.57-.8-1.12-.51-1.92-5.62-5.01-11.09-10.27-16.02-16.39-2.71-3.36-5.42-6.73-7.5-10.84-12.12,9.3-21.8,9.47-36.02,14.67-19.29,7.05-39.22,11.07-59.68,12.77-7.55.63-13.51.98-19.14,1.03-2.57,18-11.11,36.04-12.97,54.01-1.13,11,.83,21.68,1.68,32.5.62,7.8,3.1,15.48,1.42,23.44-.68,3.2-1.74,6.15-4.64,7.86-1.52.91-1.68,2.13-1.89,3.55-.42,2.97-.85,5.96-2.28,8.66-1.95,3.68-4.73,5.91-9.21,5.77-5.4-.18-10.79-.05-17.17-.05,3.47-4.5,6.08-8.58,9.36-12.02,6.54-6.84,7.98-15.39,9.55-24.19,2.41-13.44-1.48-26.09-3.85-38.98-2.51-13.64-7.66-28.3-11.33-42.59-1.49,5.54-2.29,11.16-2.79,16.67-.86,9.33-6.41,18.66-9.39,27.8-1.4,4.31-.71,9.34-.86,14.04-.31,9.29-.48,18.58-.81,27.86-.18,4.94-2.78,8.6-6.66,11.43-4.49,3.27-5.69,6.68-3.99,11.65,1.77,5.19-.4,8.27-5.84,8.27h-19.46c4.17-6.9,8.45-13.12,13.31-18.96,5.57-6.72,9.01-14.2,8.85-23.23-.48-26.08-.98-52.16-3.04-78.17-.82-10.25-1.95-20.49-3.73-30.63-.16-.89-.18-1.89-1-2.37-8.56-4.97-9.37-13.68-10.38-22.08-1.42-11.78-.26-23.65-.76-35.48-.82-19.38-5.89-37.01-19.8-51.33-1.7-1.74-2.67-2.67-5.33-.82-4.25,2.96-9.57,3.2-14.67,3.19-9.42,0-17.82,3.28-26.03,7.39-3.23,1.63-6.3,5.02-10.16.96-.26-.27-1.54.4-2.33.65-4.62,1.44-7.1.14-8.93-4.42-2.52-6.3-2.31-11.86,2.2-17.58,7.58-9.65,15.94-18.49,25.14-26.56,3.71-3.26,4.55-7.41,2.4-11.7-2.52-5.04-2.5-5.01,2.05-8.26,4.17-2.97,8.74-5.17,13.6-6.63,2.13-.63,2.83-1.58,2.68-3.72-.45-6.65-.27-13.36-1.89-19.98,5.25,3.98,8.58,9.19,11.09,15.28.09-2,.18-4,.3-6.61,4.35,3.11,6.63,6.81,7.41,11.34.37,2.18,1.33,3.09,3.5,3.75,15.77,4.83,31.16,10.58,45.5,18.86,9.23,5.33,16.95,12.52,24.62,19.79,10.15,9.62,20.44,19.11,32.44,26.48,9.94,6.1,20.56,10.52,32.07,12.32,7.45,1.17,14.99-.05,22.45-.81,13.72-1.41,26.73-5.01,39.13-11.42,10-5.15,21.21-5.99,32.34-5.6,15.32.54,29.92,3.94,43.8,10.03,2.21,1.3,5.33,2.6,8.96,4.43,5.94,2.97,13.25,7.35,20.11,15.33,9.97,12.98,14.73,28.13,18.16,43.86,4.12,18.87,3.67,37.93,2.06,56.95-1.15,13.5.61,26.5,3.49,39.63,3.14,14.31,1.64,28.54-3.6,42.29Z"/>
      <path class="cls-1" d="M351.4,97.83c-3.63-1.83-6.76-3.13-8.96-4.43,2.56,1.11,5.09,2.32,7.59,3.62.48.25.95.51,1.37.81Z"/>
    </g>
  </g>
</svg>