<svg width="137" height="105" viewBox="0 0 137 105" fill="none" xmlns="http://www.w3.org/2000/svg">
<path d="M80.6769 98.17L82.9469 78.22C83.0769 77.07 84.8469 74.98 85.8469 74.53L87.8969 73.61C88.7869 73.21 81.2869 64.6901 87.6469 56.4901C91.3469 51.7201 97.4069 49.92 103.557 52.32L106.407 47.8301C106.857 47.1201 108.567 46.33 109.347 46.17C110.127 46.01 111.017 48.67 110.647 49.41L103.117 64.37C99.6669 71.22 94.4069 75.67 87.5769 79.28L84.7569 102.24C84.6569 103.09 82.7569 104.66 82.0769 104.65L74.7169 104.61C73.7969 104.61 72.3369 102.52 72.3369 101.29L72.3769 71.04L61.7969 70.83C60.0269 70.79 57.7869 74.28 57.9469 75.9L58.2069 78.55C58.4769 81.28 51.0469 75.25 48.1869 83.08L47.3469 85.39C47.1569 85.91 45.1669 84.84 44.7869 84.44C42.1269 81.63 38.1369 83.31 37.2169 84.44L35.4069 86.68C34.0469 88.36 32.1369 83.03 31.5769 82.89L25.6369 81.39L23.0669 102.08C22.9269 103.2 20.9169 104.7 20.0969 104.69L13.0769 104.6C12.4669 104.6 10.6969 102.91 10.6969 101.93L10.6769 36.59C10.6769 32.34 12.0169 29.1801 13.6469 25.5301C9.8469 26.4201 6.3069 30.23 6.3469 34.62L6.5769 59.64C6.5869 61 8.2669 63.61 7.9869 64.77C7.6569 66.12 5.5769 68.86 3.9969 68.79C2.4169 68.72 0.4069 66.09 0.0469003 64.8C-0.3131 63.51 1.5169 60.7601 1.5369 59.2201L1.7569 35.5401C1.8469 26.0401 8.9569 20.15 18.0069 20.16L82.9969 20.23C84.5569 20.23 87.7569 19.13 88.4669 18.58L85.5969 12.65C85.0769 11.57 86.1969 8.78005 87.2469 8.50005C97.3169 5.85005 100.057 13.08 102.147 7.67005C104.017 2.83005 107.717 -1.86995 109.197 0.790049C109.497 1.33005 109.977 2.82005 109.647 3.36005L107.077 7.46005C106.867 7.80005 108.367 9.16005 108.577 8.83005L109.587 7.28005C109.807 6.94005 115.007 -3.07995 116.977 0.940049C118.197 3.42005 117.267 2.89005 114.247 9.34005C113.957 9.97005 116.407 11.31 117.057 11.86L132.827 25.1901C136.877 28.6201 137.647 33 134.897 37.67C133.617 39.84 130.887 42.1501 128.077 42.1301L113.027 41.98C112.207 41.98 110.757 40.59 110.667 39.84C110.577 39.09 112.297 37.43 113.287 37.42L128.237 37.37C130.517 37.37 133.137 31.78 131.327 30.22L114.497 15.63C111.337 12.89 103.517 12.93 103.867 13.98L104.527 15.99C104.777 16.75 104.567 18.4201 104.277 19.1901C103.987 19.9601 101.227 19.17 100.767 18.41C99.1369 15.72 95.6069 11.23 90.7069 12.92L93.6269 16.65C93.9469 17.06 94.8669 19.02 94.5869 19.47C93.4269 21.36 89.3269 24.12 87.0569 24.32L78.7969 25.0301C80.7669 34.0201 74.9269 40.75 66.7169 41.78C64.7469 49.82 57.2469 54.09 49.9169 51.78C42.5869 49.47 39.1069 41.36 41.5969 33.92C39.4569 30.97 38.2569 28.55 36.9469 24.9L25.9169 24.7801C19.9669 24.7101 15.2469 29.34 15.2469 35.64V98.23C15.2469 98.91 16.1369 99.98 16.5369 100.23C17.0669 100.57 18.8169 99.03 18.9069 98.26L21.1869 78.51C21.8369 72.9 33.0969 74.5601 38.9769 58.6301C39.2569 57.8601 40.9169 56.94 41.5769 56.89C42.2369 56.84 43.4169 58.9901 43.1769 59.8801C41.5069 66.2901 35.8769 73.15 29.7069 77.32C38.2469 80.53 47.7469 78.38 54.1069 71.17L46.6869 70.67C46.0869 70.63 44.8669 69.37 44.5069 68.9C44.0169 68.26 46.0269 66.25 46.9269 66.25L74.0069 66.19C75.3469 66.19 76.9969 67.94 76.9969 69.33L76.8969 97.37C76.8969 98.24 77.8069 99.77 78.3069 100.2C78.8069 100.63 80.5469 98.95 80.6369 98.16L80.6769 98.17ZM65.9069 36.9901C67.5369 36.8201 69.9169 35.87 71.4569 35C74.3369 33.39 75.8369 26.95 73.2569 24.96L42.1969 24.8601C42.5569 31.6201 49.4069 30.3401 46.4269 35.8301C43.4469 41.3201 47.2969 46.67 52.4469 47.57C57.3369 48.43 61.8969 45.03 62.3469 39.43C62.3969 38.78 62.6469 37.3201 63.1469 37.2701L65.8969 36.98L65.9069 36.9901ZM101.667 57.1C96.7569 54.28 92.7069 56.8301 90.5469 60.7001C88.9469 63.5701 89.6669 67.73 92.7269 70.49C96.5969 66.59 99.0269 62.61 101.677 57.1H101.667Z" fill="black"/>
<path d="M111.797 24.8399C113.437 24.8399 114.767 23.5102 114.767 21.8699C114.767 20.2296 113.437 18.8999 111.797 18.8999C110.157 18.8999 108.827 20.2296 108.827 21.8699C108.827 23.5102 110.157 24.8399 111.797 24.8399Z" fill="black"/>
</svg>
