<?xml version="1.0" encoding="UTF-8"?>
<svg id="Layer_2" data-name="Layer 2" xmlns="http://www.w3.org/2000/svg" viewBox="0 0 170.08 139.55">
  <g id="Layer_1-2" data-name="Layer 1">
    <g>
      <path d="M74.58,126.14c2.72,5.01-6.6,7.76-2.36,10.36,2.08,1.27,7.34,1.38,9.01-.25,3.81-9.03-5.05-23.82-2.05-32.34.83-6.07,31.58-2.11,32.49-.86l7.03,9.76c1.64,2.28,4.33,4.71,5.62,7.18,1.83,3.52.1,6.32-2.07,8.77-6.34,7.15-6.13,1.96-9.91,5.85-.83.86-1.26,3.63.17,3.97,2.19.52,7.43,1.86,9.39.08,4.97-4.52,9.3-9.63,13.4-14.99,4.81-6.28-3.16-19.67,1.87-18.35l15.74,4.13c2.19.58,4.12,2.35,5.43,3.96,7.45,9.16,2.33,17.24,7.2,18.74,1.51.47,3.02-.52,3.85-2.04,2.54-4.64-2.64-18.81-4.78-24.12-3.4-8.4-12.85-11.78-14.31-20.05l-3.49-19.67c-.4-2.25-.35-4.17,1.03-6.06,7.87-10.82,16.44-28.18,13.3-41.69-2.05-8.79-8.34-15.64-17.09-18.04-5.43-1.49-10.89.42-14.1,4.94-1.39,1.96-1.59,4.9-.09,6.54,2.32,2.54,6.9-5.43,13.97-2.2,2.85,1.3,4.4,4.45,5.29,7.38,5.63,18.39-7.89,35.98-13.98,35.73-14.18-.57-27.41-1.93-41.52.01-9.11,1.25-17.86,2.38-26.71,4.63-9.42,2.39-19.21,3.09-25.84-4.98-2.83-3.44-7.38-3.92-10.65-6.53l-8.96-7.14-2.16,7.52c-10.81,3.99-5.92,6.38-11.53,11.57-4.28,3.96,1.51,10.52,2.42,10.62,6.52.71,16.43,3.93,17.32,12.02.81,7.34,1.05,16.1-.56,23.29-2.26,10.06-10.52,17.83-17.28,24.97-2.81,2.97-8.25,1.58-9.06,3.01-.61,1.08-1.18,3.54.64,4.14,7.03,2.32,12.24-.67,18.21-5.53l13.84-11.26c3.17-2.58,6.4-4.89,9.05-8.09,5.86-7.09,5.75-8.38,18.73-5.87,1.96.38,3.69,2.69,4.83,4.79l8.69,16.05Z"/>
      <path d="M65.89,110.09l8.69,16.05c2.72,5.01-6.6,7.76-2.36,10.36,2.08,1.27,7.34,1.38,9.01-.25,3.81-9.03-5.05-23.82-2.05-32.34.83-6.07,31.58-2.11,32.49-.86l7.03,9.76c1.64,2.28,4.33,4.71,5.62,7.18,1.83,3.52.1,6.32-2.07,8.77-6.34,7.15-6.13,1.96-9.91,5.85-.83.86-1.26,3.63.17,3.97,2.19.52,7.43,1.86,9.39.08,4.97-4.52,9.3-9.63,13.4-14.99,4.81-6.28-3.16-19.67,1.87-18.35l15.74,4.13c2.19.58,4.12,2.35,5.43,3.96,7.45,9.16,2.33,17.24,7.2,18.74,1.51.47,3.02-.52,3.85-2.04,2.54-4.64-2.64-18.81-4.78-24.12-3.4-8.4-12.85-11.78-14.31-20.05l-3.49-19.67c-.4-2.25-.35-4.17,1.03-6.06,7.87-10.82,16.44-28.18,13.3-41.69-2.05-8.79-8.34-15.64-17.09-18.04-5.43-1.49-10.89.42-14.1,4.94-1.39,1.96-1.59,4.9-.09,6.54,2.32,2.54,6.9-5.43,13.97-2.2,2.85,1.3,4.4,4.45,5.29,7.38,5.63,18.39-7.89,35.98-13.98,35.73-14.18-.57-27.41-1.93-41.52.01-9.11,1.25-17.86,2.38-26.71,4.63-9.42,2.39-19.21,3.09-25.84-4.98-2.83-3.44-7.38-3.92-10.65-6.53l-8.96-7.14-2.16,7.52c-10.81,3.99-5.92,6.38-11.53,11.57-4.28,3.96,1.51,10.52,2.42,10.62,6.52.71,16.43,3.93,17.32,12.02.81,7.34,1.05,16.1-.56,23.29-2.26,10.06-10.52,17.83-17.28,24.97-2.81,2.97-8.25,1.58-9.06,3.01-.61,1.08-1.18,3.54.64,4.14,7.03,2.32,12.24-.67,18.21-5.53l13.84-11.26c3.17-2.58,6.4-4.89,9.05-8.09,5.86-7.09,5.75-8.38,18.73-5.87,1.96.38,3.69,2.69,4.83,4.79Z"/>
    </g>
  </g>
</svg>