<?xml version="1.0" encoding="UTF-8"?>
<svg id="Capa_2" data-name="Capa 2" xmlns="http://www.w3.org/2000/svg" viewBox="0 0 392.65 388.44">
  <defs>
    <style>
      .cls-1 {
        fill: #2e5b2c;
        stroke-width: 0px;
      }
    </style>
  </defs>
  <g id="Layer_1" data-name="Layer 1">
    <path class="cls-1" d="M246.07,47.41c-2.93,3.57-1.28,6.53,1.61,9.26,4.7,4.45,9.32,8.98,14.66,14.13-2.09,1.8-3.66,2.98-5.02,4.35-52.47,52.85-104.92,105.73-157.37,158.6-1.02,1.04-2.11,2.02-3.05,3.13-3.21,3.77-3.17,7.6.22,11.27,1.98,2.14,4.15,4.09,6.18,6.18,4.66,4.74,4.87,8.41.59,13.57-5.17,6.22-10.49,12.32-15.68,18.54-3.94,4.74-3.74,8.88.56,13.31,2.25,2.33,4.57,4.59,6.89,6.84,5.07,4.93,8.92,5.04,14.38.36,5.64-4.85,11.24-9.76,16.9-14.6,5.89-5.02,9.68-4.89,15.1.43,1.04,1.02,2.07,2.06,3.1,3.08,6.91,6.84,9.57,6.83,16.47-.12,52.67-53.1,105.37-106.19,157.99-159.34,1.32-1.34,1.94-3.36,2.89-5.06,1.71,1.61,1.9,1.63,2.01,1.72,4.51,4.41,9.07,8.78,13.52,13.25,2.78,2.79,5.7,4.58,9.24,1.42,2.81-2.5,2.38-5.55-1.27-9.18-30.22-30-60.45-59.98-90.69-89.95-3.43-3.4-7-3.9-9.23-1.19ZM183.7,176.17c5.9,5.86,11.77,11.67,17.69,17.53.4.4.81.8,1.21,1.21,5.55,5.49,11.15,11.04,16.88,16.72l-.04.04c-3.67,3.46-7.84,7.22-11.81,11.2-6.69,6.7-13.36,13.42-20.04,20.15-8.81,8.88-17.63,17.78-26.45,26.66-3.24,3.27-5.68,4.66-8.27,4.17-.53-.09-1.07-.26-1.62-.52-1.45-.68-3-1.91-4.8-3.69-1.82-1.79-3.62-3.58-5.44-5.36-1.84-1.8-3.66-3.62-5.5-5.44-3.59-3.56-7.19-7.13-10.75-10.73-1.14-1.16-2.01-2.27-2.58-3.35-.21-.41-.39-.82-.52-1.22-.04-.13-.08-.26-.11-.39-.67-2.52.31-4.97,2.95-7.63,9.51-9.63,19.02-19.24,28.55-28.84.17-.16.33-.33.5-.49,9.67-9.74,19.35-19.48,29.03-29.22.43-.43.97-.77,1.07-.84.02.02.03.03.05.05Z"/>
    <path class="cls-1" d="M375.05,52.93c-25.81,26.02-24.34,24.76-48.75,49.36-11.85-11.75-23.63-23.42-35.8-35.48,24.39-24.55,23.11-23.45,48.72-49.23-3.01-2.7-5.72-5-8.29-7.45-2.56-2.45-3.23-5.37-.69-8.14,2.76-3,5.79-2.36,8.47.3,17.25,17.08,34.47,34.19,51.69,51.3,2.52,2.51,3.17,5.42.63,8.16-2.77,2.99-5.82,2.37-8.45-.37-2.46-2.56-4.74-5.29-7.54-8.44Z"/>
    <path class="cls-1" d="M0,388.44c39.57-39.89,41-41.63,80.11-81.05,2.19,2.26,4.61,4.74,7.2,7.41-.78.83-1.96,2.11-3.19,3.35-30.29,30.55-22.91,23.31-53.1,53.96-4.18,4.24-8.65,7.52-14.29,9.5-5.55,1.95-10.91,4.42-16.74,6.82Z"/>
  </g>
</svg>