<?xml version="1.0" encoding="UTF-8"?>
<svg id="Layer_2" data-name="Layer 2" xmlns="http://www.w3.org/2000/svg" viewBox="0 0 255.12 191.35">
  <defs>
    <style>
      .cls-1 {
        fill: #010101;
      }
    </style>
  </defs>
  <g id="Layer_1-2" data-name="Layer 1">
    <path class="cls-1" d="M255.12,76.32c-.51-1.38-.57-2.86-.95-4.27-2.03-7.53-5.86-14.11-10.53-20.26-2.49-3.28-5.5-5.99-8.91-8.28-5.72-3.84-11.9-6.75-18.5-8.7-1.73-.51-3.56-.56-5.37-.58-9.92-.13-19.84.11-29.75.59-8.77.43-17.56.73-26.33,1.14-9.62.44-19.24,1-28.87,1.4-8.32.34-16.62,1.04-24.95.93-4.48-.06-8.42-1.24-11.81-4.37-3.56-3.3-7.06-6.66-10.8-9.76-5.04-4.17-10.71-7.37-16.26-10.75-1.39-.85-2.78-1.68-4.2-2.48-.52-.29-.77-.53-.59-1.21.35-1.34.79-2.61,1.46-3.84.79-1.44,1.11-2.99.37-4.57-.5-1.06-1.39-1.48-2.53-1.23-1.37.29-2.6.91-3.64,1.85-.69.61-1.32,1.29-2.03,1.87-2.43,1.99-4.09,4.47-4.88,7.51-.19.72-.55.9-1.28.83-2.32-.21-4.53.25-6.76.95-5.63,1.77-10.28,5.03-14.64,8.89-3.49,3.09-6.62,6.5-9.6,10.06-3.97,4.75-7.95,9.49-11.34,14.7C.83,49.18.25,51.94.01,54.75c-.14,1.72,1.03,3.02,2.47,3.9.64.39,1.44.6,2.19.73,1.7.31,3.05,1.2,4.04,2.52.75,1.01,1.79,1.26,2.83,1.38,1.17.14,2.36.08,3.55-.31,4.45-1.47,8.87-3.03,13.43-4.16.44-.11.9-.24,1.29-.47,2.31-1.37,4.44-.4,6.53.55.95.43,1.32,1.43,1.7,2.35.87,2.05.56,4.26.82,6.39.38,3.12.61,6.27,1.01,9.39,1.79,13.98,6.35,27.15,12.01,39.96,2.34,5.29,5.52,10.1,9.17,14.59,1.03,1.27,2.33,2.28,3.65,3.23,2.47,1.77,4.79,3.81,7.67,4.88,4.92,1.84,7.16,5.5,7.78,10.5.44,3.56.49,7.13.83,10.69.39,4.15.49,8.33,1.22,12.46.14.77-.05,1.54-.47,2.23-.98,1.61-2.2,3.03-3.37,4.5-.39.48-.64.99-.79,1.59-.52,2.02-.98,4.05-1.38,6.09-.13.66-.11.94.7.93,3.15-.05,6.31-.04,9.46,0,.58,0,.8-.19.93-.71.27-1.1.73-2.13,1.34-3.09.43-.67.96-1.21,1.7-1.54,1.77-.78,2.56-2.06,2.54-4.08-.08-8.75.05-17.5.45-26.25.06-1.31.18-2.61.28-3.92.04-.54.13-.83.82-.5,2.49,1.16,4.33,2.79,5.43,5.46,2.2,5.33,3.47,10.85,4.37,16.51.42,2.64.22,5.3.53,7.93.09.77-.36,1.48-.75,2.17-1.22,2.15-2.3,4.36-3.09,6.71-.23.68-.11,1.02.5,1.34.46.24.87.61,1.29.93,2.53,1.95,6.32,2.17,9.12.57.34-.19.38-.44.44-.76.26-1.54.39-3.09.36-4.65-.01-.65.14-.99.8-1.25,2.25-.86,2.2-.89,2.22-3.26.07-6.09-.86-12.04-2.24-17.95-.5-2.13-.84-4.3-1.13-6.47-.41-3.04.47-5.74,2.51-8.04,1.25-1.4,2.55-2.76,3.74-4.21,2.05-2.5,4.51-3.51,7.77-2.86,8.27,1.65,16.66,1.79,25.06,1.73,11.97-.08,23.76-1.61,35.44-4.15,2.11-.46,4.11-1.25,6.17-1.84,4.16-1.19,8.37.43,10.69,4.08,1.56,2.45,2.08,5.21,2.37,8.05.35,3.51-.32,7.01-.14,10.5.28,5.44-.73,10.68-1.85,15.94-.56,2.62-1.17,5.24-1.31,7.93-.02.33-.12.59-.41.66-1.38.35-1.84,1.41-2.12,2.64-.07.31-.2.6-.31.9-.34.93-.27,1.5.85,1.99,1.65.73,3.23,1.39,5.07,1.12.66-.1,1.22.24,1.81.49.67-1.82,1.08-3.68,1.47-5.54.26-1.26.8-2.15,2.19-2.09,1.96.09,2.44-1.11,2.86-2.74,2.04-7.79,3.49-15.71,4.82-23.64.32-1.91.86-3.78,1.09-5.72.13-1.13,1.38-1.73,2.31-1.09,2.38,1.65,4.84,3.2,7.04,5.1,1.22,1.05,1.73,2.49,1.9,4.03.65,5.98,1.28,11.96,1.88,17.94.15,1.44-.05,2.97.34,4.33.48,1.69-.17,2.43-1.5,3.2-1.21.7-1.92,1.95-2.62,3.15-.23.4-.24.62.3.7.3.04.61.2.87.37,2.94,1.88,6.37,1.88,9.63,2.53.74.15.9-.15.82-.86-.17-1.51-.24-3.04-.37-4.55-.05-.51.08-.69.64-.79,1.6-.28,1.92-.73,1.92-2.36,0-7.48-.06-14.95.03-22.43.05-3.83-.47-7.54-1.78-11.13-.78-2.14-.41-3.92.85-5.87,2.33-3.6,4.81-7.17,5.68-11.51.31-1.56.56-3.12.55-4.73-.03-5.17-.06-10.35,0-15.52.04-3.72.28-7.43.62-11.13.17-1.85.91-3.53,1.61-5.23,1.23-2.99,2.62-5.93,3.42-9.09.36-1.41.36-2.9.93-4.26v-5.53Z"/>
  </g>
</svg>