<svg width="168" height="197" viewBox="0 0 168 197" fill="none" xmlns="http://www.w3.org/2000/svg">
<path d="M163.925 172.706L142.17 80.0019C139.205 67.3501 126.451 56.2807 114.714 55.7313L97.341 54.9196C112.863 45.3016 115.533 25.5161 104.541 12.6511C93.3439 -0.451728 73.268 -0.0417519 62.6117 12.8397C51.5212 26.2623 54.9532 45.5885 69.9753 54.9524L52.586 55.7395C45.46 56.0593 39.4888 59.8967 34.4187 64.4638C29.3403 69.031 26.3752 74.2377 24.737 81.1498L3.46529 171.148C1.99093 177.355 4.16971 183.545 8.044 187.973C11.8036 192.27 17.4144 194.024 23.9589 194L148.403 193.606C158.666 193.573 166.005 181.561 163.925 172.706ZM83.6295 18.2514C90.4689 18.2514 96.0141 23.8024 96.0141 30.649C96.0141 37.4956 90.4689 43.0467 83.6295 43.0467C76.7901 43.0467 71.2449 37.4956 71.2449 30.649C71.2449 23.8024 76.7901 18.2514 83.6295 18.2514Z" stroke="#231F20" stroke-width="6" stroke-miterlimit="10" stroke-linejoin="round"/>
</svg>
