<?xml version="1.0" encoding="UTF-8"?>
<svg id="Layer_2" data-name="Layer 2" xmlns="http://www.w3.org/2000/svg" viewBox="0 0 255.12 141.05">
  <g id="Layer_1-2" data-name="Layer 1">
    <path d="M150.23,103.79c-9.97,1.19-42.87-1.4-51.68-3.31l-6.47-1.4c-3.99-.87-4.78,4.1-5.39,6.93l-2.43,11.28c-1.57,7.31.62,9.5-.96,13.85-1.41,3.88-1.26,6.96-4.19,7.64-2.64.62-5.24.82-7.99.67-2.06-.11.85-5.88,1.59-7.08,1.47-2.39,2.06-4.98,1.71-7.81l-.93-7.44c-.08-.64-1.01-5.99-1.8-4.26-4,8.75-.18,12.41-3.3,17-2.67,3.92-2.36,6.86-5.72,7.14-2.7.23-5.21.15-7.85-.06.23-2.7,1.09-5.14,2.58-7.43,2.86-4.44,3.89-10.61,3.02-15.85-.66-3.98-1.06-7.82-1.24-11.88-.09-2.06-.23-5.03-2.3-5.25-1.94-.2-5.74.57-10.45.12-7.25-.68-20.55-2.89-26.55-6.62-5.56-3.46-8.59-1.13-17.38-6.34-2.33-1.38-.9-6.73-2.43-13.06-.44-1.83,2.47-.07,6.18-1.69,4.6-2.02,10.46-5.96,12.74-10.56,1.31-2.65,2.45-5.28,3.33-8.11.68-2.18.09-4.16-1.66-5.53-4.69-3.65-8.62-12.32-10.69-17.95-.19-.52.15-.92.41-1.05.94-.48,9.34,3.88,9.1,2.35-.06-.38-4.33-8.59-2.47-9.22.82-.28,3.61,3.27,10.95,3.75,4.36.29,8.52.75,12.82,1.52,2.27.41,4.46.06,6.45-1.02l8.9-4.83c2.38-1.29,4.81-2.24,7.38-3.17l19.17-6.95c9.72-3.52,19.42-5.94,29.72-7.1C117.67.45,122.75-.05,128.12,0l21.97.21,21.4.08c8.48.03,16.6.55,24.84,2.39,8.09,1.81,15.71,4.23,23.22,7.72,6.79,3.16,12.54,7.7,17.76,12.95,1.76,1.77,3.68,5.31,4.46,5.15.27-.06.9-.36.61-.83l-1.13-1.84c-1.53-2.5-1.44-5.86.66-8.13,1.97-2.13,5.57-2.03,7.54.02,3.71,3.86-1.98,10.23.56,8.4,2.25-1.62,3.79-3.62,4.75-6.27.82-.09-.03,4.24-.37,5.07-2.63,6.37-10.97,3.3-10.39,9.48.26,2.79,3.26,8.94,2.48,16.5-.57,5.52-1.66,10.78-2.76,16.2-1.27,6.26-4.97,16.02-8.52,21.15-8.23,11.86.3,15.39-2.99,24.93l-2.43,7.05c-2.58,7.48.75,10.24-2.16,13.83s-2.62,6.46-5.74,6.8c-1.42.15-8.85.73-8.07-1.53,1.56-4.52,5.55-5.75,5.26-11.5l-.37-7.38c-.22-4.41.58-9.19-4.21-11.93l-5.33-3.05c-1.58-.9.04,3.53-2.21,9.78-1.36,3.77-2.26,7.47-2.71,11.48-.18,1.59-.78,3.01-1.75,4.21-3.15,3.91-1.76,6.54-5.54,6.72-1.48.07-8.39.21-8.74-.3-.47-.7,1.27-3.62,1.96-4.6l2.43-3.47c3.32-4.75,2.47-12.71.59-17.79l-5.16-13.92c-1.29-3.49-5.47-1.07-7.89-.29-9.71,3.15-19.44,5.25-29.9,6.5ZM245.54,23.95c1.19-.67,1.66-1.71,1.6-2.89-.15-.89-.71-1.42-1.38-1.59s-1.44,0-1.99.72-.74,1.54-.64,2.42c.14,1.16,1.14,1.72,2.4,1.34Z"/>
  </g>
</svg>